<?xml version="1.0" encoding="UTF-8" standalone="no"?>
<svg
   xmlns:dc="http://purl.org/dc/elements/1.1/"
   xmlns:cc="http://creativecommons.org/ns#"
   xmlns:rdf="http://www.w3.org/1999/02/22-rdf-syntax-ns#"
   xmlns:svg="http://www.w3.org/2000/svg"
   xmlns="http://www.w3.org/2000/svg"
   xmlns:sodipodi="http://sodipodi.sourceforge.net/DTD/sodipodi-0.dtd"
   xmlns:inkscape="http://www.inkscape.org/namespaces/inkscape"
   inkscape:version="1.0beta2 (998e94e, 2020-02-11)"
   sodipodi:docname="digital PDP-10.svg"
   width="539.88226mm"
   height="270.63968mm"
   viewBox="0 0 539.88228 270.63968"
   version="1.1"
   id="svg8">
  <sodipodi:namedview
     fit-margin-bottom="0"
     fit-margin-right="0"
     fit-margin-left="0"
     fit-margin-top="0"
     inkscape:guide-bbox="true"
     showguides="true"
     inkscape:current-layer="svg8"
     inkscape:window-maximized="0"
     inkscape:window-y="71"
     inkscape:window-x="3922"
     inkscape:cy="541.02297"
     inkscape:cx="976.0461"
     inkscape:zoom="0.87919951"
     inkscape:showpageshadow="false"
     inkscape:pagecheckerboard="true"
     showgrid="false"
     id="namedview15"
     inkscape:window-height="1765"
     inkscape:window-width="3188"
     inkscape:pageshadow="2"
     inkscape:pageopacity="0"
     guidetolerance="10"
     gridtolerance="10"
     objecttolerance="10"
     borderopacity="1"
     bordercolor="#666666"
     pagecolor="#ffffff">
    <sodipodi:guide
       id="guide50"
       orientation="1,0"
       position="-227.45407,39.119452" />
  </sodipodi:namedview>
  <defs
     id="defs2" />
  <metadata
     id="metadata5">
    <rdf:RDF>
      <cc:Work
         rdf:about="">
        <dc:format>image/svg+xml</dc:format>
        <dc:type
           rdf:resource="http://purl.org/dc/dcmitype/StillImage" />
        <dc:title></dc:title>
      </cc:Work>
    </rdf:RDF>
  </metadata>
  <g
     inkscape:label="digital-logo-layer"
     id="layer1"
     transform="translate(471.46862,577.41224)"
     style="display:inline">
    <path
       inkscape:label="digital-logo-path"
       inkscape:connector-curvature="0"
       style="fill:#000000;stroke-width:1"
       d="m -470.80717,-498.03513 v -79.375 h 33.73438 33.73437 v 79.375 79.375 h -33.73437 -33.73438 z m 33.87361,50.51929 c 4.19496,-0.52521 8.14039,-2.26297 11.02382,-4.85542 0.73281,-0.65887 1.40818,-1.12215 1.50082,-1.02952 0.0926,0.0926 0.16842,0.98202 0.16842,1.97641 v 1.80799 h 7.27604 7.27604 v -44.8512 -44.85119 l -7.0776,0.0705 -7.0776,0.0705 -0.0685,14.2438 -0.0685,14.24379 -1.31069,-1.17842 c -6.25747,-5.626 -17.48908,-5.92258 -25.54641,-0.67458 -6.89325,4.48981 -11.22677,12.36573 -12.85964,23.37166 -0.56179,3.78658 -0.42454,12.7846 0.25223,16.53646 1.361,7.54504 3.69932,12.79895 7.71305,17.33021 3.71117,4.18969 8.84711,7.00996 14.16129,7.77632 2.24023,0.32307 2.16044,0.32285 4.63715,0.0128 z m -1.06527,-14.97777 c -1.15752,-0.18403 -3.80004,-1.19957 -4.85614,-1.86626 -5.67797,-3.58434 -8.62806,-12.62118 -7.19291,-22.0336 0.89193,-5.84969 3.17675,-10.1755 6.77277,-12.82274 6.4085,-4.71766 14.63382,-1.76727 18.18702,6.52363 l 0.71524,1.66891 0.0825,8.82372 c 0.0945,10.10736 0.0507,10.39636 -2.06906,13.6435 -2.83745,4.34655 -7.4202,6.73364 -11.63944,6.06284 z m 45.77291,-35.54152 v -79.375 h 33.73438 33.73438 v 79.375 79.375 h -33.73438 -33.73438 z m 41.01042,16.27187 v -32.14687 h -7.14375 -7.14375 v 32.14687 32.14688 h 7.14375 7.14375 z m 0,-48.81562 v -7.9375 h -7.14375 -7.14375 v 7.9375 7.9375 h 7.14375 7.14375 z m 37.63654,32.60989 0.0666,-79.30885 33.66823,-0.0672 33.66823,-0.0672 v 79.37601 79.37601 h -33.73482 -33.73481 z m 36.3666,66.3251 c 6.00206,-0.66927 11.22217,-2.72721 14.91806,-5.88118 3.02742,-2.58352 4.81935,-5.33798 6.03385,-9.27491 0.55684,-1.80506 0.55954,-1.97127 0.55954,-34.46198 v -32.64817 h -6.21771 -6.21771 v 2.91042 c 0,1.60072 -0.0755,2.91041 -0.1677,2.91041 -0.0922,0 -1.01497,-0.80376 -2.05052,-1.78613 -3.85086,-3.65311 -8.07201,-5.06656 -13.57583,-4.54585 -11.04522,1.04499 -18.76881,8.04092 -21.74357,19.69506 -1.09074,4.27316 -1.42783,7.2092 -1.44273,12.56609 -0.0152,5.45394 0.3395,7.96746 1.65758,11.74714 2.80387,8.04034 9.95131,14.66622 18.13207,16.80896 5.64238,1.47788 12.61463,-0.22878 17.42297,-4.26479 l 1.27499,-1.07019 -0.0844,4.33059 c -0.0765,3.92883 -0.14273,4.44915 -0.7136,5.60868 -1.87642,3.81134 -6.6715,6.28013 -12.30621,6.33597 -5.10124,0.0505 -7.77675,-1.74638 -8.32657,-5.59227 l -0.17557,-1.22805 -7.47131,-0.0703 -7.47131,-0.0703 v 0.91286 c 0,1.73958 0.80853,4.79388 1.82673,6.90059 2.64287,5.46828 7.61921,8.84568 14.82111,10.05896 2.52882,0.42602 7.99908,0.47838 11.3178,0.10832 z m -6.95082,-34.60735 c -2.83839,-0.96871 -5.49785,-3.17479 -7.05795,-5.85473 -3.14869,-5.40881 -3.37621,-15.67175 -0.48391,-21.82812 2.17477,-4.62909 6.13878,-7.27604 10.89643,-7.27604 4.46766,0 9.20327,3.17766 11.42653,7.66735 l 0.84887,1.71423 v 8.73681 c 0,8.54101 -0.0138,8.77112 -0.61774,10.26732 -1.19505,2.9608 -4.3334,5.58021 -7.96309,6.64634 -1.89229,0.55582 -5.31011,0.52035 -7.04914,-0.0732 z m 49.36435,-31.7849 v -79.37601 l 33.66823,0.0672 33.66823,0.0672 0.0666,79.30885 0.0666,79.30886 h -33.73482 -33.7348 z m 40.74583,16.27288 v -32.14687 h -7.14375 -7.14375 v 32.14687 32.14688 h 7.14375 7.14375 z m 0,-48.81562 v -7.9375 h -7.14375 -7.14375 v 7.9375 7.9375 h 7.14375 7.14375 z m 37.83542,32.54274 v -79.37601 l 33.66823,0.0672 33.66823,0.0672 0.06657,79.30885 0.06659,79.30886 h -33.73482 -33.7348 z m 46.16979,47.53771 1.85209,-0.32036 0.0707,-6.69174 0.0707,-6.69173 -1.26135,0.21533 c -0.69373,0.11844 -2.39244,0.21534 -3.77489,0.21534 -2.13984,0 -2.67157,-0.0906 -3.57642,-0.60941 -1.38517,-0.79422 -2.18051,-1.99048 -2.51063,-3.77631 -0.16661,-0.9012 -0.24128,-7.90241 -0.19876,-18.63719 l 0.0681,-17.19376 5.15937,-0.13229 5.15938,-0.13229 v -5.29167 -5.29166 l -5.15938,-0.13229 -5.15937,-0.1323 -0.069,-11.44323 -0.069,-11.44322 h -6.47949 -6.47949 v 11.50937 11.50938 h -3.44506 -3.44506 l 0.0716,5.35781 0.0716,5.35781 3.37343,0.074 3.37344,0.074 0.005,21.09262 c 0.005,22.95766 0.0198,23.21642 1.50037,26.24737 1.4855,3.04109 4.70323,5.33197 8.68148,6.18086 2.29312,0.48931 9.54183,0.54021 12.17084,0.0855 z m 32.411461,-47.5367 v -79.375 h 33.734376 33.734375 v 79.375 79.375 h -33.734375 -33.734376 z m 32.32203,48.57436 c 2.959444,-0.5694 4.719743,-1.33982 7.40664,-3.24159 1.349587,-0.95522 2.606781,-1.79548 2.793815,-1.86724 0.26162,-0.1004 0.340016,0.42499 0.340016,2.27908 v 2.40955 h 7.672917 c 4.220104,0 7.672916,-0.0979 7.672916,-0.21759 0,-0.11968 -0.355626,-0.8742 -0.790284,-1.6767 -1.813798,-3.34883 -1.688914,-1.41641 -1.724236,-26.68071 -0.03495,-24.98783 -0.0082,-24.51973 -1.595067,-27.97506 -2.712324,-5.90618 -9.660414,-8.88083 -20.761246,-8.88839 -5.587577,-0.004 -8.529876,0.56812 -12.170834,2.36576 -6.088433,3.00603 -9.758018,9.18644 -9.878933,16.63832 l -0.04294,2.64583 h 5.945029 5.945029 l 0.317976,-1.89907 c 0.626295,-3.74059 2.069465,-5.81652 4.956519,-7.12973 1.490239,-0.67786 1.887379,-0.73822 4.928156,-0.74902 5.079973,-0.018 7.484692,0.92667 8.726143,3.42821 0.53647,1.08101 0.674635,1.81218 0.756471,4.00376 l 0.100118,2.68123 -2.740845,1.05766 c -3.234532,1.24816 -5.164297,1.80044 -11.207512,3.20746 -10.124811,2.35733 -15.146179,5.12144 -18.389786,10.12298 -3.355737,5.17441 -3.681941,14.29648 -0.722418,20.20152 2.29145,4.57207 6.304148,7.72971 11.577029,9.1101 2.45155,0.64179 7.992772,0.73018 10.885329,0.17364 z m -6.206067,-11.98815 c -1.464019,-0.48801 -3.040142,-1.9042 -3.724619,-3.34664 -1.53707,-3.23913 -0.978535,-6.88334 1.464734,-9.55666 1.730851,-1.89384 3.024346,-2.53251 6.967881,-3.44042 2.885731,-0.66438 10.416937,-2.73919 11.595444,-3.19448 0.459502,-0.17753 0.478764,0.075 0.396875,5.20718 l -0.08607,5.39377 -0.916596,1.71979 c -1.235842,2.3188 -3.890486,4.92156 -6.151245,6.03105 -3.166454,1.55394 -7.010585,2.03169 -9.546404,1.18641 z m 52.46528827,-36.58621 v -79.375 H 34.679298 68.413673 v 79.375 79.375 H 34.679298 0.94492227 Z m 40.87812573,3.175 v -45.11146 h -7.14375 -7.14375 l -0.06792,44.84687 c -0.03736,24.66579 -0.01058,44.99766 0.05951,45.18194 0.09938,0.2613 1.68693,0.31955 7.211668,0.26459 l 7.084246,-0.0705 z"
       id="path4309" />
  </g>
  <g
     transform="matrix(1.0407094,0,0,1.0407097,0.68838049,-28.672023)"
     inkscape:label="pdp-10"
     style="font-style:normal;font-variant:normal;font-weight:normal;font-stretch:normal;font-size:112.889px;line-height:1;font-family:MicrogrammaDBolExt;-inkscape-font-specification:'MicrogrammaDBolExt Normal';font-variant-ligatures:normal;font-variant-caps:normal;font-variant-numeric:normal;font-variant-east-asian:normal;letter-spacing:-2.64583px;word-spacing:0px;fill:#000000;fill-opacity:1;stroke:none;stroke-width:0.264583"
     id="text19"
     aria-label="PDP-10">
    <path
       inkscape:connector-curvature="0"
       id="path37"
       style="font-style:normal;font-variant:normal;font-weight:normal;font-stretch:normal;font-family:MicrogrammaDBolExt;-inkscape-font-specification:'MicrogrammaDBolExt Normal';font-variant-ligatures:normal;font-variant-caps:normal;font-variant-numeric:normal;font-variant-east-asian:normal;stroke-width:0.264583"
       d="M -0.66145313,286.72153 V 211.48057 H 50.877226 q 15.3238,0 19.733526,0.60634 11.189682,1.48828 15.103314,7.22092 3.968754,5.67753 3.968754,20.33987 0,13.94576 -3.252174,19.56816 -2.204863,3.80339 -6.173617,5.78776 -3.968754,1.98438 -10.858951,2.75608 -4.905821,0.55122 -18.300366,0.55122 H 22.269125 v 18.41061 z M 22.269125,249.51446 h 28.663223 q 7.827264,-0.0551 9.536033,-0.22049 1.763891,-0.16536 3.14193,-0.88194 1.763891,-0.93707 2.42535,-2.8112 0.661459,-1.92926 0.661459,-5.95313 0,-4.02388 -0.826824,-5.89801 -0.826823,-1.87414 -2.921443,-2.70096 -1.543405,-0.60634 -12.016505,-0.7717 H 22.269125 Z" />
    <path
       inkscape:connector-curvature="0"
       id="path39"
       style="font-style:normal;font-variant:normal;font-weight:normal;font-stretch:normal;font-family:MicrogrammaDBolExt;-inkscape-font-specification:'MicrogrammaDBolExt Normal';font-variant-ligatures:normal;font-variant-caps:normal;font-variant-numeric:normal;font-variant-east-asian:normal;stroke-width:0.264583"
       d="M 94.588646,286.72153 V 211.48057 H 148.8834 q 14.44186,0 18.90671,0.22048 4.46485,0.22049 9.31554,1.21268 11.29993,2.31511 14.71747,12.78821 1.26779,3.96875 1.70877,8.54384 0.44097,4.51997 0.44097,13.72527 0,10.08725 -0.55122,15.26868 -0.49609,5.18143 -1.92925,9.42579 -3.36242,9.92189 -13.83552,12.23699 -4.90582,1.10244 -10.4731,1.48829 -5.56728,0.33073 -18.24524,0.33073 z m 22.599844,-19.18231 h 31.9154 q 8.81945,0 12.95357,-0.55122 4.18924,-0.60634 5.89801,-2.0395 1.87414,-1.59852 2.64584,-5.07118 0.7717,-3.47266 0.7717,-10.4731 0,-7.00044 -0.66146,-10.52823 -0.66146,-3.52778 -2.31511,-5.40191 -1.87413,-2.0395 -5.45703,-2.59072 -3.52778,-0.60633 -14.05601,-0.60633 h -31.69491 z" />
    <path
       inkscape:connector-curvature="0"
       id="path41"
       d="m 200.42209,286.72153 v -75.24096 h 51.53868 q 15.3238,0 19.73352,0.60634 11.18969,1.48828 15.10332,7.22092 3.96875,5.67753 3.96875,20.33987 0,13.94576 -3.25217,19.56816 -2.20486,3.80339 -6.17362,5.78776 -3.96875,1.98438 -10.85895,2.75608 -4.90582,0.55122 -18.30037,0.55122 h -28.82858 v 18.41061 z m 22.93058,-37.20707 h 28.66322 q 7.82726,-0.0551 9.53603,-0.22049 1.76389,-0.16536 3.14193,-0.88194 1.76389,-0.93707 2.42535,-2.8112 0.66146,-1.92926 0.66146,-5.95313 0,-4.02388 -0.82682,-5.89801 -0.82683,-1.87414 -2.92145,-2.70096 -1.5434,-0.60634 -12.0165,-0.7717 h -28.66322 z" />
    <path
       style="stroke-width:0.273573"
       inkscape:connector-curvature="0"
       id="path43"
       d="m 303.5252,249.47647 h 41.52213 v 18.65807 h -41.66681 z" />
    <path
       inkscape:connector-curvature="0"
       id="path45"
       d="m 379.60631,211.48057 h 36.27 v 75.24096 h -22.93058 v -55.61768 h -5.95313 l -22.214,18.74134 -12.67796,-14.77259 z" />
    <path
       inkscape:connector-curvature="0"
       id="path47"
       d="m 470.22751,210.59862 q 21.49742,0 30.37199,1.32292 10.08725,1.43316 14.00088,8.70921 1.98438,3.63802 2.42535,8.10287 0.44098,4.46485 0.44098,20.33987 0,12.45747 -0.16537,15.93013 -0.11024,3.41754 -0.71658,6.72484 -1.48828,8.4336 -8.59896,12.18187 -2.92145,1.5434 -6.94532,2.3151 -3.96876,0.71658 -11.29993,0.99219 -8.81945,0.38585 -19.45792,0.38585 -21.55254,0 -30.42711,-1.32292 -10.08725,-1.48828 -14.00088,-8.70921 -1.98438,-3.69314 -2.42535,-8.15799 -0.44097,-4.51997 -0.44097,-21.33205 0,-11.46529 0.11024,-14.88283 0.16536,-3.47266 0.7717,-6.72483 1.48828,-8.48873 8.59897,-12.18187 2.92144,-1.59853 6.8902,-2.31511 4.02387,-0.71658 11.35504,-0.99219 8.65409,-0.38585 19.51304,-0.38585 z m -1.37804,19.56816 q -15.65453,0 -19.07207,2.0395 -2.20486,1.32292 -3.03168,4.90582 -0.82683,3.58291 -0.82683,11.63066 0,9.31554 0.93707,12.89845 0.99219,3.52778 3.80339,4.79557 1.98438,0.88195 4.51997,1.15756 2.59071,0.22048 13.55991,0.44097 14.056,-0.27561 16.20574,-0.49609 6.17362,-0.66146 7.88239,-3.91364 1.70877,-3.30729 1.70877,-14.55209 0,-8.9297 -0.99219,-12.45748 -0.93707,-3.5829 -3.74827,-4.8507 -2.09462,-0.93707 -4.79557,-1.15755 -2.64584,-0.22049 -16.15063,-0.44098 z" />
  </g>
</svg>
